<svg width="125" height="125" xmlns="http://www.w3.org/2000/svg">
    <defs>
        <filter x="-53.3%" y="-53.3%" width="206.5%" height="206.6%" filterUnits="objectBoundingBox" id="a">
            <feGaussianBlur stdDeviation="11" in="SourceGraphic"/>
        </filter>
    </defs>
    <g fill="none" fill-rule="evenodd">
        <g fill="#FCEA6F">
            <path d="m21.963 6.96 31.943-.002c8.285-.003 15 6.713 15.001 14.997l-.002.002-.002 31.93c-.002 8.283-6.717 14.998-15 15l-31.944.002c-8.284.003-15-6.712-15-14.997l.001-.002.002-31.93c.003-8.283 6.718-14.998 15.001-15z" opacity=".476" filter="url(#a)" transform="rotate(15 -42.473 143.443)"/>
            <path d="m57.024 28.805 26.991 7.23c9.07 2.428 14.452 11.75 12.023 20.818 0 .001 0 .002-.003.002l-7.23 26.978C86.373 92.9 77.052 98.28 67.983 95.854l-26.991-7.23c-9.07-2.428-14.452-11.75-12.023-20.818 0 0 0-.002.003-.002l7.23-26.977c2.432-9.068 11.753-14.45 20.822-12.022z"/>
        </g>
        <path d="M38.648 57.95v-3.847c2.058-.127 3.824-.65 5.296-1.567 1.473-.918 2.59-2.066 3.35-3.443.76-1.377 1.14-2.826 1.14-4.345 0-2.058-.452-3.689-1.355-4.892-.902-1.203-2.01-2.081-3.325-2.635-1.314-.554-3.016-1.1-5.106-1.639V23.995c1.362.285 2.454.879 3.278 1.781.823.902 1.314 1.908 1.472 3.016h4.608c-.254-2.406-1.204-4.361-2.85-5.865-1.647-1.504-3.816-2.367-6.508-2.588v-3.942h-2.565v3.942c-2.977.19-5.36 1.124-7.149 2.802-1.789 1.677-2.683 3.799-2.683 6.363 0 2.026.459 3.64 1.377 4.844.918 1.203 2.027 2.09 3.325 2.66 1.298.569 3.008 1.123 5.13 1.661v11.872c-1.583-.253-2.81-.87-3.681-1.852-.87-.981-1.37-2.137-1.496-3.466h-4.608c.032 2.469.95 4.503 2.755 6.102 1.805 1.599 4.148 2.525 7.03 2.778v3.846h2.565zm-2.565-23.08c-1.773-.538-3.119-1.219-4.037-2.042-.919-.823-1.378-2.01-1.378-3.561 0-1.615.491-2.874 1.473-3.776.981-.902 2.295-1.432 3.942-1.59v10.97zm2.565 15.719V39.382c1.742.506 3.088 1.179 4.038 2.018.95.839 1.425 2.034 1.425 3.585 0 1.456-.483 2.707-1.45 3.752-.965 1.044-2.303 1.662-4.013 1.852z" fill="#222C4E" fill-rule="nonzero" style="mix-blend-mode:difference" transform="rotate(15 -43.064 142.692)"/>
    </g>
</svg>
