<svg width="39" height="32" xmlns="http://www.w3.org/2000/svg" xmlns:xlink="http://www.w3.org/1999/xlink">
    <defs>
        <filter color-interpolation-filters="auto" id="a">
            <feColorMatrix in="SourceGraphic" values="0 0 0 0 0.496139 0 0 0 0 1.000000 0 0 0 0 0.592777 0 0 0 1.000000 0"/>
        </filter>
        <path id="b" d="M.098.293h38v31h-38z"/>
    </defs>
    <g transform="translate(-935 -79)" filter="url(#a)" fill="none" fill-rule="evenodd">
        <g transform="translate(935 79)">
            <mask id="c" fill="#fff">
                <use xlink:href="#b"/>
            </mask>
            <path d="M.098 27.8c4.259.383 8.022-.644 11.443-3.215-3.562-.322-5.935-2.121-7.271-5.455 1.184.133 2.285.167 3.47-.16-1.869-.46-3.345-1.373-4.48-2.807-1.131-1.43-1.695-3.061-1.692-4.948 1.084.546 2.178.904 3.388.932C1.537 9.258.745 5.821 2.646 1.691c4.259 5.024 9.588 7.773 16.062 8.21-.028-.777-.096-1.517-.075-2.254.095-3.217 2.55-6.272 5.665-7.064C27.18-.151 29.713.508 31.88 2.55c.161.152.295.193.522.143A16.144 16.144 0 0 0 37.049.866c-.612 1.848-1.704 3.193-3.214 4.24 1.462-.128 2.837-.56 4.263-1.134-.998 1.469-2.108 2.698-3.455 3.695-.341.252-.43.517-.422.93.075 3.59-.718 6.996-2.272 10.222-1.864 3.872-4.572 7.007-8.235 9.28-2.608 1.616-5.447 2.58-8.485 2.982a23.12 23.12 0 0 1-7.946-.295 21.747 21.747 0 0 1-7.016-2.858c-.03-.02-.057-.043-.17-.128" fill="#000" mask="url(#c)"/>
        </g>
    </g>
</svg>
